<svg width="632" height="119" viewBox="0 0 632 119" fill="none" xmlns="http://www.w3.org/2000/svg">
<line x1="7.07107" y1="33.2965" x2="56.5856" y2="82.7769" stroke="#00B4D8" stroke-width="10" stroke-linecap="round"/>
<line x1="38.8921" y1="36.821" x2="88.4066" y2="86.3014" stroke="#00B4D8" stroke-width="10" stroke-linecap="round"/>
<line x1="7.07108" y1="33.2965" x2="35.3456" y2="5.00244" stroke="#00B4D8" stroke-width="10" stroke-linecap="round"/>
<line x1="21.2181" y1="47.4337" x2="49.4926" y2="19.1397" stroke="#00B4D8" stroke-width="10" stroke-linecap="round"/>
<line x1="35.3456" y1="5.00244" x2="63.6396" y2="33.2769" stroke="#00B4D8" stroke-width="10" stroke-linecap="round"/>
<line x1="84.8601" y1="54.4828" x2="113.154" y2="82.7573" stroke="#00B4D8" stroke-width="10" stroke-linecap="round"/>
<line x1="77.8061" y1="103.983" x2="84.8797" y2="111.051" stroke="#00B4D8" stroke-width="10" stroke-linecap="round"/>
<line x1="113.113" y1="82.8995" x2="113.122" y2="110.899" stroke="#00B4D8" stroke-width="10" stroke-linecap="round"/>
<line x1="84.9299" y1="111.001" x2="112.93" y2="110.991" stroke="#00B4D8" stroke-width="10" stroke-linecap="round"/>
<path d="M162.946 102C161.25 102 159.766 101.505 158.494 100.516C157.222 99.456 156.586 98.1487 156.586 96.594V33.206C156.586 31.6513 157.116 30.3793 158.176 29.39C159.236 28.33 160.508 27.8 161.992 27.8H191.884C195.7 27.8 199.198 28.754 202.378 30.662C205.558 32.4993 208.102 35.0787 210.01 38.4C211.989 41.6507 212.978 45.396 212.978 49.636C212.978 52.4627 212.413 55.1833 211.282 57.798C210.151 60.342 208.632 62.6033 206.724 64.582C204.816 66.5607 202.661 68.0447 200.258 69.034L199.092 67.02C201.283 67.7973 203.191 68.928 204.816 70.412C206.441 71.8253 207.713 73.5213 208.632 75.5C209.621 77.408 210.151 79.5987 210.222 82.072C210.434 84.2627 210.611 86.1 210.752 87.584C210.964 88.9973 211.247 90.1633 211.6 91.082C211.953 92.0007 212.589 92.7073 213.508 93.202C214.78 93.9087 215.557 94.9687 215.84 96.382C216.193 97.7953 215.911 99.0673 214.992 100.198C214.356 101.046 213.543 101.611 212.554 101.894C211.635 102.106 210.681 102.141 209.692 102C208.703 101.788 207.855 101.505 207.148 101.152C206.017 100.445 204.851 99.456 203.65 98.184C202.519 96.8413 201.601 95.004 200.894 92.672C200.187 90.34 199.834 87.266 199.834 83.45C199.834 81.6833 199.551 80.164 198.986 78.892C198.421 77.62 197.643 76.5953 196.654 75.818C195.665 74.97 194.499 74.3693 193.156 74.016C191.813 73.592 190.329 73.38 188.704 73.38H166.232L167.716 71.26V96.594C167.716 98.1487 167.292 99.456 166.444 100.516C165.596 101.505 164.43 102 162.946 102ZM166.338 64.158H191.672C193.297 64.0873 194.852 63.4513 196.336 62.25C197.891 60.978 199.127 59.282 200.046 57.162C201.035 55.042 201.53 52.6393 201.53 49.954C201.53 46.562 200.505 43.7353 198.456 41.474C196.477 39.142 194.11 37.976 191.354 37.976H166.55L167.716 35.22V66.384L166.338 64.158ZM248.783 103.06C242.917 103.06 237.829 101.859 233.519 99.456C229.208 96.9827 225.851 93.626 223.449 89.386C221.117 85.0753 219.951 80.164 219.951 74.652C219.951 68.4333 221.187 63.1333 223.661 58.752C226.205 54.3 229.491 50.908 233.519 48.576C237.547 46.1733 241.822 44.972 246.345 44.972C249.807 44.972 253.093 45.6787 256.203 47.092C259.312 48.4347 262.068 50.3427 264.471 52.816C266.944 55.2187 268.887 58.0807 270.301 61.402C271.714 64.6527 272.456 68.2213 272.527 72.108C272.456 73.5213 271.891 74.6873 270.831 75.606C269.771 76.5247 268.534 76.984 267.121 76.984H225.887L223.343 67.974H263.199L261.185 69.882V67.232C261.043 64.7587 260.231 62.6033 258.747 60.766C257.263 58.858 255.425 57.4093 253.235 56.42C251.044 55.36 248.747 54.83 246.345 54.83C244.225 54.83 242.175 55.1833 240.197 55.89C238.289 56.526 236.557 57.586 235.003 59.07C233.519 60.554 232.317 62.5327 231.399 65.006C230.551 67.4087 230.127 70.412 230.127 74.016C230.127 77.9027 230.939 81.2947 232.565 84.192C234.19 87.0893 236.381 89.3507 239.137 90.976C241.893 92.5307 244.931 93.308 248.253 93.308C250.867 93.308 253.023 93.0607 254.719 92.566C256.415 92.0007 257.828 91.3293 258.959 90.552C260.089 89.7747 261.079 89.0327 261.927 88.326C262.987 87.69 264.047 87.372 265.107 87.372C266.379 87.372 267.439 87.8313 268.287 88.75C269.135 89.598 269.559 90.6227 269.559 91.824C269.559 93.3787 268.781 94.792 267.227 96.064C265.319 97.9013 262.669 99.5267 259.277 100.94C255.955 102.353 252.457 103.06 248.783 103.06ZM308.252 45.29C313.481 45.29 317.509 46.5973 320.336 49.212C323.163 51.756 325.035 55.2187 325.954 59.6L324.258 59.07L325 57.374C325.919 55.5367 327.297 53.6993 329.134 51.862C331.042 49.954 333.303 48.3993 335.918 47.198C338.533 45.926 341.324 45.29 344.292 45.29C349.168 45.29 352.949 46.35 355.634 48.47C358.319 50.5193 360.192 53.3107 361.252 56.844C362.312 60.3067 362.842 64.1933 362.842 68.504V96.594C362.842 98.1487 362.347 99.456 361.358 100.516C360.369 101.505 359.097 102 357.542 102C356.058 102 354.786 101.505 353.726 100.516C352.737 99.456 352.242 98.1487 352.242 96.594V68.61C352.242 66.1367 351.889 63.8753 351.182 61.826C350.546 59.7767 349.38 58.1513 347.684 56.95C346.059 55.678 343.797 55.042 340.9 55.042C338.144 55.042 335.671 55.678 333.48 56.95C331.36 58.1513 329.699 59.7767 328.498 61.826C327.297 63.8753 326.696 66.1367 326.696 68.61V96.594C326.696 98.1487 326.201 99.456 325.212 100.516C324.223 101.505 322.951 102 321.396 102C319.841 102 318.569 101.505 317.58 100.516C316.591 99.456 316.096 98.1487 316.096 96.594V68.504C316.096 66.0307 315.743 63.7693 315.036 61.72C314.4 59.6707 313.269 58.0453 311.644 56.844C310.019 55.6427 307.757 55.042 304.86 55.042C302.104 55.042 299.666 55.6427 297.546 56.844C295.426 58.0453 293.765 59.6707 292.564 61.72C291.433 63.7693 290.868 66.0307 290.868 68.504V96.594C290.868 98.1487 290.338 99.456 289.278 100.516C288.289 101.505 287.052 102 285.568 102C284.013 102 282.741 101.505 281.752 100.516C280.763 99.456 280.268 98.1487 280.268 96.594V51.65C280.268 50.0953 280.763 48.8233 281.752 47.834C282.741 46.774 284.013 46.244 285.568 46.244C287.052 46.244 288.289 46.774 289.278 47.834C290.338 48.8233 290.868 50.0953 290.868 51.65V57.904L288.854 59.07C289.349 57.5153 290.161 55.9253 291.292 54.3C292.423 52.6747 293.836 51.1907 295.532 49.848C297.299 48.5053 299.242 47.41 301.362 46.562C303.482 45.714 305.779 45.29 308.252 45.29ZM399.406 103.06C393.541 103.06 388.453 101.859 384.142 99.456C379.832 96.9827 376.475 93.626 374.072 89.386C371.74 85.0753 370.574 80.164 370.574 74.652C370.574 68.4333 371.811 63.1333 374.284 58.752C376.828 54.3 380.114 50.908 384.142 48.576C388.17 46.1733 392.446 44.972 396.968 44.972C400.431 44.972 403.717 45.6787 406.826 47.092C409.936 48.4347 412.692 50.3427 415.094 52.816C417.568 55.2187 419.511 58.0807 420.924 61.402C422.338 64.6527 423.08 68.2213 423.15 72.108C423.08 73.5213 422.514 74.6873 421.454 75.606C420.394 76.5247 419.158 76.984 417.744 76.984H376.51L373.966 67.974H413.822L411.808 69.882V67.232C411.667 64.7587 410.854 62.6033 409.37 60.766C407.886 58.858 406.049 57.4093 403.858 56.42C401.668 55.36 399.371 54.83 396.968 54.83C394.848 54.83 392.799 55.1833 390.82 55.89C388.912 56.526 387.181 57.586 385.626 59.07C384.142 60.554 382.941 62.5327 382.022 65.006C381.174 67.4087 380.75 70.412 380.75 74.016C380.75 77.9027 381.563 81.2947 383.188 84.192C384.814 87.0893 387.004 89.3507 389.76 90.976C392.516 92.5307 395.555 93.308 398.876 93.308C401.491 93.308 403.646 93.0607 405.342 92.566C407.038 92.0007 408.452 91.3293 409.582 90.552C410.713 89.7747 411.702 89.0327 412.55 88.326C413.61 87.69 414.67 87.372 415.73 87.372C417.002 87.372 418.062 87.8313 418.91 88.75C419.758 89.598 420.182 90.6227 420.182 91.824C420.182 93.3787 419.405 94.792 417.85 96.064C415.942 97.9013 413.292 99.5267 409.9 100.94C406.579 102.353 403.081 103.06 399.406 103.06ZM458.876 45.29C464.105 45.29 468.133 46.5973 470.96 49.212C473.786 51.756 475.659 55.2187 476.578 59.6L474.882 59.07L475.624 57.374C476.542 55.5367 477.92 53.6993 479.758 51.862C481.666 49.954 483.927 48.3993 486.542 47.198C489.156 45.926 491.948 45.29 494.916 45.29C499.792 45.29 503.572 46.35 506.258 48.47C508.943 50.5193 510.816 53.3107 511.876 56.844C512.936 60.3067 513.466 64.1933 513.466 68.504V96.594C513.466 98.1487 512.971 99.456 511.982 100.516C510.992 101.505 509.72 102 508.166 102C506.682 102 505.41 101.505 504.35 100.516C503.36 99.456 502.866 98.1487 502.866 96.594V68.61C502.866 66.1367 502.512 63.8753 501.806 61.826C501.17 59.7767 500.004 58.1513 498.308 56.95C496.682 55.678 494.421 55.042 491.524 55.042C488.768 55.042 486.294 55.678 484.104 56.95C481.984 58.1513 480.323 59.7767 479.122 61.826C477.92 63.8753 477.32 66.1367 477.32 68.61V96.594C477.32 98.1487 476.825 99.456 475.836 100.516C474.846 101.505 473.574 102 472.02 102C470.465 102 469.193 101.505 468.204 100.516C467.214 99.456 466.72 98.1487 466.72 96.594V68.504C466.72 66.0307 466.366 63.7693 465.66 61.72C465.024 59.6707 463.893 58.0453 462.268 56.844C460.642 55.6427 458.381 55.042 455.484 55.042C452.728 55.042 450.29 55.6427 448.17 56.844C446.05 58.0453 444.389 59.6707 443.188 61.72C442.057 63.7693 441.492 66.0307 441.492 68.504V96.594C441.492 98.1487 440.962 99.456 439.902 100.516C438.912 101.505 437.676 102 436.192 102C434.637 102 433.365 101.505 432.376 100.516C431.386 99.456 430.892 98.1487 430.892 96.594V51.65C430.892 50.0953 431.386 48.8233 432.376 47.834C433.365 46.774 434.637 46.244 436.192 46.244C437.676 46.244 438.912 46.774 439.902 47.834C440.962 48.8233 441.492 50.0953 441.492 51.65V57.904L439.478 59.07C439.972 57.5153 440.785 55.9253 441.916 54.3C443.046 52.6747 444.46 51.1907 446.156 49.848C447.922 48.5053 449.866 47.41 451.986 46.562C454.106 45.714 456.402 45.29 458.876 45.29ZM577.484 74.122C577.484 79.7753 576.247 84.7927 573.774 89.174C571.3 93.4847 567.944 96.8767 563.704 99.35C559.464 101.823 554.694 103.06 549.394 103.06C544.094 103.06 539.324 101.823 535.084 99.35C530.844 96.8767 527.452 93.4847 524.908 89.174C522.434 84.7927 521.198 79.7753 521.198 74.122C521.198 68.398 522.434 63.3807 524.908 59.07C527.452 54.6887 530.844 51.2613 535.084 48.788C539.324 46.244 544.094 44.972 549.394 44.972C554.694 44.972 559.464 46.244 563.704 48.788C567.944 51.2613 571.3 54.6887 573.774 59.07C576.247 63.3807 577.484 68.398 577.484 74.122ZM566.884 74.122C566.884 70.2353 566.107 66.8787 564.552 64.052C562.997 61.1547 560.877 58.8933 558.192 57.268C555.577 55.572 552.645 54.724 549.394 54.724C546.143 54.724 543.175 55.572 540.49 57.268C537.804 58.8933 535.684 61.1547 534.13 64.052C532.575 66.8787 531.798 70.2353 531.798 74.122C531.798 77.8673 532.575 81.1887 534.13 84.086C535.684 86.9833 537.804 89.2447 540.49 90.87C543.175 92.4953 546.143 93.308 549.394 93.308C552.645 93.308 555.577 92.4953 558.192 90.87C560.877 89.2447 562.997 86.9833 564.552 84.086C566.107 81.1887 566.884 77.8673 566.884 74.122Z" fill="#00B4D8"/>
</svg>
